<svg id="Layer_1" data-name="Layer 1" xmlns="http://www.w3.org/2000/svg" xmlns:xlink="http://www.w3.org/1999/xlink" viewBox="0 0 734.39 787"><defs><style>.cls-1{fill:none;}.cls-2{isolation:isolate;}.cls-3{clip-path:url(#clip-path);}.cls-4{fill:#adadad;}.cls-5{fill:#aeaeae;}.cls-6{fill:#afafaf;}.cls-7{fill:#b0b0b0;}.cls-8{fill:#b1b1b1;}.cls-9{fill:#b2b2b2;}.cls-10{fill:#b3b3b3;}.cls-11{fill:#b4b4b4;}.cls-12{fill:#b5b5b5;}.cls-13{clip-path:url(#clip-path-2);}.cls-14{fill:#b6b6b6;}.cls-15{clip-path:url(#clip-path-3);}.cls-16{fill:#bfbfbf;}.cls-17{fill:#bebebe;}.cls-18{fill:#bdbdbd;}.cls-19{fill:#bcbcbc;}.cls-20{fill:#bbb;}.cls-21{fill:#bababa;}.cls-22{fill:#b9b9b9;}.cls-23{fill:#b8b8b8;}.cls-24{fill:#b7b7b7;}.cls-25{clip-path:url(#clip-path-4);}.cls-26{fill:#dbdbdb;}.cls-27{clip-path:url(#clip-path-5);}.cls-28{fill:#d0d0d0;}.cls-29{fill:#a5a5a5;}.cls-30{clip-path:url(#clip-path-6);}.cls-31{fill:#a7a7a7;}.cls-32{clip-path:url(#clip-path-7);}.cls-33{fill:#aaa;}.cls-34{clip-path:url(#clip-path-8);}.cls-35{fill:#a8a8a8;}.cls-36{clip-path:url(#clip-path-9);}.cls-37{fill:#c2c2c2;}.cls-38{clip-path:url(#clip-path-10);}</style><clipPath id="clip-path" transform="translate(-172.8 -146.5)"><path class="cls-1" d="M529.43,205h21.14C382.88,205,247,355,247,540S382.88,875,550.57,875H529.43c-167.68,0-303.61-150-303.61-335S361.75,205,529.43,205Z"/></clipPath><clipPath id="clip-path-2" transform="translate(-172.8 -146.5)"><path class="cls-1" d="M552.51,875h0Z"/></clipPath><clipPath id="clip-path-3" transform="translate(-172.8 -146.5)"><path class="cls-1" d="M550.57,205C644.8,205,729,252.38,784.7,326.72H763.57C707.88,252.38,623.67,205,529.43,205Z"/></clipPath><clipPath id="clip-path-4" transform="translate(-172.8 -146.5)"><path class="cls-1" d="M854.18,540c0,184.3-134.88,333.83-301.67,335H531.38c166.78-1.16,301.67-150.69,301.67-335,0-81-26.08-155.35-69.48-213.28H784.7C828.1,384.65,854.18,459,854.18,540Z"/></clipPath><clipPath id="clip-path-5" transform="translate(-172.8 -146.5)"><path class="cls-1" d="M529.43,146.5h21.14c197,0,356.62,176.17,356.62,393.5S747.53,933.5,550.57,933.5H529.43c197,0,356.63-176.18,356.63-393.5S726.39,146.5,529.43,146.5Z"/></clipPath><clipPath id="clip-path-6" transform="translate(-172.8 -146.5)"><path class="cls-1" d="M543.39,441l10.47.76-1.05-.06-1.06,0-1.08,0h-1.1l-10.49-.77h1.1l1.09,0,1.07,0Z"/></clipPath><clipPath id="clip-path-7" transform="translate(-172.8 -146.5)"><path class="cls-1" d="M559.23,637.05l-10.44.75c-.44,0-.89.06-1.35.08s-.91,0-1.37.06l-1.4,0h-1.42l10.47-.75h1.41l1.39,0,1.37,0Z"/></clipPath><clipPath id="clip-path-8" transform="translate(-172.8 -146.5)"><path class="cls-1" d="M588.36,536.21l10.2,0a81,81,0,0,1,10,4.77,74.54,74.54,0,0,1,17,13.13,76.49,76.49,0,0,1,7,8.36l-10,.18A75.11,75.11,0,0,0,607.53,547a78,78,0,0,0-9.08-6A82.17,82.17,0,0,0,588.36,536.21Z"/></clipPath><clipPath id="clip-path-9" transform="translate(-172.8 -146.5)"><path class="cls-1" d="M553.92,390.71l10.41,1.15c1.74.2,3.47.44,5.18.74s3.4.64,5.08,1,3.33.85,5,1.34,3.26,1,4.86,1.65q3.81,1.42,7.38,3.15t6.9,3.74a76.43,76.43,0,0,1,6.4,4.34,75.42,75.42,0,0,1,5.92,4.93c1.89,1.74,3.68,3.57,5.37,5.46a78.42,78.42,0,0,1,9,12.33c1.3,2.21,2.49,4.5,3.59,6.86a73.68,73.68,0,0,1,2.88,7.24A71.27,71.27,0,0,1,635.09,460a76.44,76.44,0,0,1,.41,8.06,97,97,0,0,1-.66,11.52,76.68,76.68,0,0,1-2,10.55,64.75,64.75,0,0,1-3.32,9.58,58.19,58.19,0,0,1-4.64,8.6,83.39,83.39,0,0,1-5.63,7.62,72,72,0,0,1-6.27,6.64,67.34,67.34,0,0,1-6.9,5.66,68.41,68.41,0,0,1-7.52,4.68l-10.2-.06a67.65,67.65,0,0,0,14.52-10.42,71.65,71.65,0,0,0,6.3-6.69,82.82,82.82,0,0,0,5.67-7.68,59.1,59.1,0,0,0,4.67-8.67,65.28,65.28,0,0,0,3.34-9.65,76.5,76.5,0,0,0,2-10.64,96.15,96.15,0,0,0,.67-11.6,80.46,80.46,0,0,0-.41-8.13,75.23,75.23,0,0,0-1.24-7.86,72.3,72.3,0,0,0-2.07-7.57,69.11,69.11,0,0,0-2.9-7.29q-1.65-3.57-3.6-6.92t-4.21-6.44a76.7,76.7,0,0,0-4.81-6q-2.55-2.87-5.4-5.51t-5.95-5c-2.07-1.55-4.21-3-6.45-4.37s-4.54-2.61-6.93-3.76-4.87-2.22-7.43-3.18q-2.42-.9-4.89-1.66t-5-1.35c-1.68-.4-3.38-.74-5.1-1S555.68,390.91,553.92,390.71Z"/></clipPath><clipPath id="clip-path-10" transform="translate(-172.8 -146.5)"><path class="cls-1" d="M570.27,688.14l-10.37,1.15c1.75-.2,3.48-.44,5.2-.72s3.41-.61,5.1-1,3.35-.78,5-1.24,3.28-1,4.9-1.51q4.08-1.38,7.91-3.08c2.56-1.14,5-2.38,7.43-3.74a82.62,82.62,0,0,0,13.39-9.43,76.76,76.76,0,0,0,5.88-5.66,77.82,77.82,0,0,0,9.82-13.06q2.13-3.55,3.94-7.4a72.67,72.67,0,0,0,3.16-8,76.39,76.39,0,0,0,2.25-8.48,85.62,85.62,0,0,0,1.35-9q.46-4.63.46-9.51a98.28,98.28,0,0,0-.82-12.84,80,80,0,0,0-2.46-11.76,69,69,0,0,0-4.08-10.68,63.25,63.25,0,0,0-5.71-9.58l10-.18a64,64,0,0,1,5.67,9.51,67.81,67.81,0,0,1,4.05,10.59,77.51,77.51,0,0,1,2.44,11.67,96.85,96.85,0,0,1,.82,12.74q0,4.85-.45,9.44a84.29,84.29,0,0,1-1.35,8.92,75.73,75.73,0,0,1-2.24,8.41,69.68,69.68,0,0,1-3.14,7.89A81.37,81.37,0,0,1,634.5,649a77,77,0,0,1-4.56,6.77,75,75,0,0,1-5.2,6.19,77.56,77.56,0,0,1-5.84,5.62q-3.07,2.65-6.41,5a78.67,78.67,0,0,1-6.9,4.35c-2.38,1.35-4.84,2.58-7.38,3.71s-5.16,2.15-7.87,3.06c-1.6.54-3.23,1-4.87,1.5s-3.29.86-5,1.23-3.36.69-5.07,1S572,687.94,570.27,688.14Z"/></clipPath></defs><title>coin-white</title><g class="cls-2"><g class="cls-2"><g class="cls-3"><g class="cls-2"><path class="cls-4" d="M529.43,205h21.14C382.88,205,247,355,247,540c0,91.71,33.4,174.81,87.52,235.31H313.34c-54.12-60.5-87.52-143.6-87.52-235.31,0-185,135.93-335,303.61-335" transform="translate(-172.8 -146.5)"/><path class="cls-4" d="M313.34,775.31h21.13q6.63,7.41,13.66,14.36H327q-7-6.95-13.66-14.36" transform="translate(-172.8 -146.5)"/><path class="cls-4" d="M327,789.67h21.13q5.58,5.52,11.41,10.72H338.41q-5.82-5.21-11.41-10.72" transform="translate(-172.8 -146.5)"/><path class="cls-5" d="M338.41,800.39h21.13q5.15,4.62,10.49,9H348.9q-5.34-4.35-10.49-9" transform="translate(-172.8 -146.5)"/><path class="cls-5" d="M348.9,809.36H370q4.39,3.6,8.9,7H357.8q-4.51-3.42-8.9-7" transform="translate(-172.8 -146.5)"/><path class="cls-5" d="M357.8,816.37h21.13q4.38,3.32,8.88,6.48H366.68q-4.5-3.17-8.88-6.48" transform="translate(-172.8 -146.5)"/><path class="cls-6" d="M366.68,822.85h21.13q4,2.82,8.12,5.5H374.8q-4.1-2.69-8.12-5.5" transform="translate(-172.8 -146.5)"/><path class="cls-6" d="M374.8,828.35h21.13q3.88,2.55,7.84,5H382.64q-4-2.41-7.84-5" transform="translate(-172.8 -146.5)"/><path class="cls-6" d="M382.64,833.31h21.13q3.92,2.38,7.9,4.66H390.54q-4-2.28-7.9-4.66" transform="translate(-172.8 -146.5)"/><path class="cls-6" d="M390.54,838h21.13q3.56,2,7.15,3.93H397.69q-3.6-1.92-7.15-3.93" transform="translate(-172.8 -146.5)"/><path class="cls-7" d="M397.69,841.9h21.13q3.62,1.92,7.26,3.74H405q-3.65-1.82-7.26-3.74" transform="translate(-172.8 -146.5)"/><path class="cls-7" d="M405,845.64h21.13q3.62,1.79,7.27,3.48H412.22q-3.66-1.7-7.27-3.48" transform="translate(-172.8 -146.5)"/><path class="cls-7" d="M412.22,849.12h21.13q3.38,1.56,6.8,3H419c-2.27-1-4.54-2-6.79-3" transform="translate(-172.8 -146.5)"/><path class="cls-8" d="M419,852.15h21.14c2.27,1,4.57,1.94,6.87,2.86H425.89c-2.31-.92-4.6-1.88-6.88-2.86" transform="translate(-172.8 -146.5)"/><path class="cls-8" d="M425.89,855H447q3.45,1.38,7,2.68H432.84q-3.49-1.31-6.95-2.68" transform="translate(-172.8 -146.5)"/><path class="cls-8" d="M432.84,857.69H454q3.3,1.21,6.63,2.36H439.47q-3.33-1.14-6.63-2.36" transform="translate(-172.8 -146.5)"/><path class="cls-8" d="M439.47,860.05H460.6q3.31,1.13,6.66,2.18H446.13q-3.35-1.05-6.66-2.18" transform="translate(-172.8 -146.5)"/><path class="cls-9" d="M446.13,862.23h21.13q3.35,1,6.72,2H452.85q-3.37-1-6.72-2" transform="translate(-172.8 -146.5)"/><path class="cls-9" d="M452.85,864.25H474q3.31.94,6.66,1.82H459.51q-3.35-.87-6.66-1.82" transform="translate(-172.8 -146.5)"/><path class="cls-9" d="M459.51,866.07h21.13q3.28.85,6.6,1.63H466.11q-3.32-.78-6.6-1.63" transform="translate(-172.8 -146.5)"/><path class="cls-10" d="M466.11,867.7h21.13c2.2.51,4.42,1,6.64,1.47H472.75c-2.22-.46-4.44-1-6.64-1.47" transform="translate(-172.8 -146.5)"/><path class="cls-10" d="M472.75,869.17h21.13q3.35.69,6.7,1.31H479.45q-3.36-.62-6.7-1.31" transform="translate(-172.8 -146.5)"/><path class="cls-10" d="M479.45,870.48h21.13q3.35.6,6.7,1.14H486.15c-2.24-.36-4.48-.74-6.7-1.14" transform="translate(-172.8 -146.5)"/><path class="cls-10" d="M486.15,871.62h21.13c2.24.35,4.48.68,6.73,1H492.88c-2.25-.29-4.5-.62-6.73-1" transform="translate(-172.8 -146.5)"/><path class="cls-11" d="M492.88,872.59H514q3.39.45,6.79.82H499.67q-3.41-.37-6.79-.82" transform="translate(-172.8 -146.5)"/><path class="cls-11" d="M499.67,873.41H520.8q3.42.36,6.86.65H506.53q-3.43-.28-6.86-.65" transform="translate(-172.8 -146.5)"/><path class="cls-11" d="M506.53,874.06h21.13q3.5.29,7,.49H513.54q-3.51-.21-7-.49" transform="translate(-172.8 -146.5)"/><path class="cls-12" d="M513.54,874.55h21.13q3.52.19,7.06.31H520.6q-3.54-.12-7.06-.31" transform="translate(-172.8 -146.5)"/><path class="cls-12" d="M520.6,874.86h21.13c2.35.07,4.72.12,7.09.13H527.69c-2.37,0-4.74-.06-7.09-.13" transform="translate(-172.8 -146.5)"/><path class="cls-12" d="M527.69,875h0" transform="translate(-172.8 -146.5)"/></g></g></g><g class="cls-2"><g class="cls-13"><g class="cls-2"><path class="cls-14" d="M745.53,304.69h21.13c54.11,60.49,87.52,143.6,87.52,235.31,0,185-135.94,335-303.61,335H529.43c167.68,0,303.62-150,303.62-335,0-91.71-33.41-174.82-87.52-235.31" transform="translate(-172.8 -146.5)"/></g></g></g><g class="cls-2"><g class="cls-15"><g class="cls-2"><path class="cls-16" d="M529.43,205h0" transform="translate(-172.8 -146.5)"/><path class="cls-17" d="M531.18,205h21.13c2.37,0,4.74.06,7.09.13H538.27c-2.35-.07-4.72-.12-7.09-.13" transform="translate(-172.8 -146.5)"/><path class="cls-17" d="M538.27,205.14H559.4q3.54.12,7.06.31H545.33q-3.52-.19-7.06-.31" transform="translate(-172.8 -146.5)"/><path class="cls-17" d="M545.33,205.45h21.13q3.51.21,7,.49H552.34q-3.5-.28-7-.49" transform="translate(-172.8 -146.5)"/><path class="cls-18" d="M552.34,205.94h21.13q3.43.28,6.86.65H559.2q-3.42-.36-6.86-.65" transform="translate(-172.8 -146.5)"/><path class="cls-18" d="M559.2,206.59h21.13q3.4.38,6.78.81H566q-3.37-.43-6.78-.81" transform="translate(-172.8 -146.5)"/><path class="cls-18" d="M566,207.4h21.13c2.26.3,4.5.63,6.74,1H572.72c-2.24-.35-4.48-.68-6.74-1" transform="translate(-172.8 -146.5)"/><path class="cls-19" d="M572.72,208.38h21.13q3.36.52,6.7,1.14H579.42q-3.34-.61-6.7-1.14" transform="translate(-172.8 -146.5)"/><path class="cls-19" d="M579.42,209.52h21.13q3.36.61,6.7,1.31H586.11q-3.33-.69-6.69-1.31" transform="translate(-172.8 -146.5)"/><path class="cls-19" d="M586.11,210.83h21.14q3.33.69,6.64,1.47H592.76c-2.21-.52-4.42-1-6.65-1.47" transform="translate(-172.8 -146.5)"/><path class="cls-19" d="M592.76,212.3h21.13q3.32.78,6.59,1.63H599.35q-3.27-.85-6.59-1.63" transform="translate(-172.8 -146.5)"/><path class="cls-20" d="M599.35,213.93h21.13q3.36.87,6.67,1.82H606q-3.32-.94-6.67-1.82" transform="translate(-172.8 -146.5)"/><path class="cls-20" d="M606,215.75h21.13q3.38,1,6.72,2H612.74q-3.35-1.05-6.72-2" transform="translate(-172.8 -146.5)"/><path class="cls-20" d="M612.74,217.77h21.13q3.35,1,6.66,2.18H619.4q-3.31-1.12-6.66-2.18" transform="translate(-172.8 -146.5)"/><path class="cls-21" d="M619.4,220h21.13q3.33,1.14,6.63,2.36H626q-3.3-1.22-6.63-2.36" transform="translate(-172.8 -146.5)"/><path class="cls-21" d="M626,222.31h21.13c2.33.86,4.64,1.76,7,2.68H633c-2.31-.92-4.62-1.82-7-2.68" transform="translate(-172.8 -146.5)"/><path class="cls-21" d="M633,225h21.13q3.45,1.38,6.87,2.86H639.85q-3.42-1.48-6.87-2.86" transform="translate(-172.8 -146.5)"/><path class="cls-22" d="M639.85,227.85H661q3.42,1.47,6.8,3H646.65c-2.26-1-4.52-2-6.8-3" transform="translate(-172.8 -146.5)"/><path class="cls-22" d="M646.65,230.88h21.13q3.66,1.69,7.26,3.48H653.91c-2.4-1.19-4.83-2.35-7.26-3.48" transform="translate(-172.8 -146.5)"/><path class="cls-22" d="M653.91,234.36H675q3.66,1.81,7.26,3.74H661.17q-3.6-1.92-7.26-3.74" transform="translate(-172.8 -146.5)"/><path class="cls-22" d="M661.17,238.1H682.3c2.41,1.27,4.79,2.59,7.16,3.93H668.33c-2.37-1.34-4.76-2.66-7.16-3.93" transform="translate(-172.8 -146.5)"/><path class="cls-23" d="M668.33,242h21.13q4,2.26,7.9,4.66H676.23q-3.91-2.4-7.9-4.66" transform="translate(-172.8 -146.5)"/><path class="cls-23" d="M676.23,246.69h21.13q3.95,2.42,7.84,4.95H684.06c-2.58-1.69-5.2-3.34-7.83-4.95" transform="translate(-172.8 -146.5)"/><path class="cls-23" d="M684.06,251.64H705.2q4.09,2.69,8.12,5.51H692.19q-4-2.82-8.13-5.51" transform="translate(-172.8 -146.5)"/><path class="cls-24" d="M692.19,257.15h21.13c3,2.1,5.95,4.26,8.88,6.48H701.07q-4.4-3.33-8.88-6.48" transform="translate(-172.8 -146.5)"/><path class="cls-24" d="M701.07,263.63H722.2q4.5,3.42,8.9,7H710q-4.4-3.58-8.9-7" transform="translate(-172.8 -146.5)"/><path class="cls-24" d="M710,270.63H731.1q5.34,4.37,10.49,9H720.46q-5.16-4.61-10.49-9" transform="translate(-172.8 -146.5)"/><path class="cls-14" d="M720.46,279.6h21.13q5.82,5.22,11.41,10.73H731.86q-5.58-5.52-11.4-10.73" transform="translate(-172.8 -146.5)"/><path class="cls-14" d="M731.86,290.33H753q7,6.94,13.66,14.36H745.53q-6.63-7.41-13.67-14.36" transform="translate(-172.8 -146.5)"/><path class="cls-14" d="M745.53,304.69h21.13c54.11,60.49,87.52,143.6,87.52,235.31,0,185-135.94,335-303.61,335H529.43c167.68,0,303.62-150,303.62-335,0-91.71-33.41-174.82-87.52-235.31" transform="translate(-172.8 -146.5)"/></g></g></g><g class="cls-2"><g class="cls-25"><g class="cls-2"><path class="cls-14" d="M745.53,304.69h21.13c54.11,60.49,87.52,143.6,87.52,235.31,0,185-135.94,335-303.61,335H529.43c167.68,0,303.62-150,303.62-335,0-91.71-33.41-174.82-87.52-235.31" transform="translate(-172.8 -146.5)"/></g></g></g><ellipse class="cls-26" cx="356.63" cy="393.5" rx="303.61" ry="335"/><g class="cls-2"><g class="cls-27"><g class="cls-2"><path class="cls-12" d="M529.43,146.5h0" transform="translate(-172.8 -146.5)"/><path class="cls-12" d="M531.49,146.51h21.13c2.78,0,5.56.07,8.33.15H539.82c-2.77-.08-5.55-.14-8.33-.15" transform="translate(-172.8 -146.5)"/><path class="cls-12" d="M539.82,146.66H561q4.15.14,8.28.37H548.1q-4.12-.24-8.28-.37" transform="translate(-172.8 -146.5)"/><path class="cls-11" d="M548.1,147h21.13q4.13.24,8.24.57H556.33c-2.73-.22-5.48-.41-8.23-.57" transform="translate(-172.8 -146.5)"/><path class="cls-11" d="M556.33,147.6h21.14q4,.33,8.06.77H564.4q-4-.44-8.07-.77" transform="translate(-172.8 -146.5)"/><path class="cls-11" d="M564.4,148.37h21.13c2.67.28,5.32.6,8,.95H572.37q-4-.52-8-.95" transform="translate(-172.8 -146.5)"/><path class="cls-10" d="M572.37,149.32H593.5q4,.52,7.91,1.15H580.28q-3.94-.63-7.91-1.15" transform="translate(-172.8 -146.5)"/><path class="cls-10" d="M580.28,150.47h21.13q3.95.61,7.87,1.34H588.15q-3.93-.72-7.87-1.34" transform="translate(-172.8 -146.5)"/><path class="cls-10" d="M588.15,151.81h21.13q3.94.72,7.86,1.54H596q-3.91-.82-7.86-1.54" transform="translate(-172.8 -146.5)"/><path class="cls-10" d="M596,153.35h21.13c2.62.54,5.22,1.12,7.81,1.72H603.82c-2.59-.6-5.19-1.18-7.81-1.72" transform="translate(-172.8 -146.5)"/><path class="cls-9" d="M603.82,155.07H625q3.88.92,7.75,1.92H611.56q-3.85-1-7.74-1.92" transform="translate(-172.8 -146.5)"/><path class="cls-9" d="M611.56,157H632.7q3.93,1,7.83,2.14H619.4q-3.9-1.12-7.84-2.14" transform="translate(-172.8 -146.5)"/><path class="cls-9" d="M619.4,159.13h21.13q4,1.13,7.89,2.37H627.29q-3.93-1.25-7.89-2.37" transform="translate(-172.8 -146.5)"/><path class="cls-8" d="M627.29,161.5h21.13c2.62.82,5.22,1.67,7.82,2.56H635.11c-2.6-.89-5.2-1.74-7.82-2.56" transform="translate(-172.8 -146.5)"/><path class="cls-8" d="M635.11,164.06h21.13c2.61.89,5.2,1.82,7.78,2.77H642.89c-2.58-1-5.18-1.88-7.78-2.77" transform="translate(-172.8 -146.5)"/><path class="cls-8" d="M642.89,166.83H664c2.74,1,5.46,2.06,8.17,3.15H651.06c-2.71-1.09-5.43-2.13-8.17-3.15" transform="translate(-172.8 -146.5)"/><path class="cls-8" d="M651.06,170h21.13q4.06,1.62,8.08,3.35H659.13q-4-1.72-8.07-3.35" transform="translate(-172.8 -146.5)"/><path class="cls-7" d="M659.13,173.33h21.14c2.67,1.16,5.33,2.34,8,3.57H667.11c-2.64-1.23-5.3-2.41-8-3.57" transform="translate(-172.8 -146.5)"/><path class="cls-7" d="M667.11,176.9h21.14q4.29,2,8.53,4.09H675.65q-4.24-2.12-8.54-4.09" transform="translate(-172.8 -146.5)"/><path class="cls-7" d="M675.65,181h21.13q4.29,2.13,8.53,4.38H684.18q-4.23-2.25-8.53-4.38" transform="translate(-172.8 -146.5)"/><path class="cls-6" d="M684.18,185.37h21.13q4.23,2.25,8.4,4.63H692.58q-4.17-2.37-8.4-4.63" transform="translate(-172.8 -146.5)"/><path class="cls-6" d="M692.58,190h21.13q4.68,2.66,9.28,5.47H701.86q-4.61-2.82-9.28-5.47" transform="translate(-172.8 -146.5)"/><path class="cls-6" d="M701.86,195.47H723q4.65,2.84,9.21,5.82H711.07q-4.56-3-9.21-5.82" transform="translate(-172.8 -146.5)"/><path class="cls-6" d="M711.07,201.29H732.2q4.81,3.15,9.54,6.47H720.61q-4.73-3.31-9.54-6.47" transform="translate(-172.8 -146.5)"/><path class="cls-5" d="M720.61,207.76h21.13q5.28,3.7,10.43,7.6H731q-5.16-3.9-10.43-7.6" transform="translate(-172.8 -146.5)"/><path class="cls-5" d="M731,215.36h21.13q5.3,4,10.46,8.23H741.49q-5.15-4.22-10.45-8.23" transform="translate(-172.8 -146.5)"/><path class="cls-5" d="M741.49,223.59h21.14q6.25,5.13,12.32,10.54H753.82q-6.06-5.41-12.33-10.54" transform="translate(-172.8 -146.5)"/><path class="cls-4" d="M753.82,234.13H775q6.84,6.12,13.39,12.59H767.21q-6.56-6.47-13.39-12.59" transform="translate(-172.8 -146.5)"/><path class="cls-4" d="M767.21,246.72h21.13q8.26,8.16,16.06,16.87H783.26q-7.78-8.7-16-16.87" transform="translate(-172.8 -146.5)"/><path class="cls-4" d="M783.26,263.59H804.4C868,334.65,907.19,432.27,907.19,540c0,217.32-159.66,393.5-356.62,393.5H529.43c197,0,356.63-176.18,356.63-393.5,0-107.73-39.23-205.35-102.8-276.41" transform="translate(-172.8 -146.5)"/></g></g></g><path class="cls-28" d="M529.43,146.5c197,0,356.63,176.17,356.63,393.5S726.39,933.5,529.43,933.5,172.8,757.32,172.8,540,332.47,146.5,529.43,146.5Zm0,728.5C697.11,875,833,725,833,540S697.11,205,529.43,205,225.82,355,225.82,540,361.75,875,529.43,875" transform="translate(-172.8 -146.5)"/></g><g class="cls-2"><polygon class="cls-10" points="314.02 414.24 324.83 414.08 324.83 489.83 314.02 490.57 314.02 414.24"/><polygon class="cls-10" points="314.02 295.18 324.83 295.93 324.83 366.33 314.02 366.12 314.02 295.18"/><polygon class="cls-29" points="366.28 294.35 376.77 295.12 324.83 295.93 314.02 295.18 366.28 294.35"/><polygon class="cls-5" points="314.02 490.57 324.83 489.83 380.92 490.7 370.45 491.45 314.02 490.57"/><g class="cls-2"><g class="cls-30"><g class="cls-2"><path class="cls-31" d="M543.39,441l10.47.76-1.05-.06-1.06,0-1.08,0h-1.1l-10.49-.77h1.1l1.09,0,1.07,0,1,.06" transform="translate(-172.8 -146.5)"/></g></g></g><g class="cls-2"><g class="cls-32"><g class="cls-2"><path class="cls-33" d="M543.25,638l10.47-.75h1.41l1.39,0,1.37,0,1.34-.08-10.44.75c-.44,0-.89.06-1.35.08s-.91,0-1.37.06l-1.4,0h-1.42" transform="translate(-172.8 -146.5)"/></g></g></g><polygon class="cls-9" points="415.56 386.33 425.76 386.39 425.76 389.74 415.56 389.71 415.56 386.33"/><g class="cls-2"><g class="cls-34"><g class="cls-2"><path class="cls-33" d="M588.36,536.21l10.2,0,.46.18.47.19.46.19.46.2-10.19,0-.46-.19-.46-.19-.47-.2-.47-.18" transform="translate(-172.8 -146.5)"/><path class="cls-35" d="M590.22,537l10.19,0c2.2.93,4.34,2,6.4,3s4.07,2.28,6,3.54,3.79,2.6,5.59,4,3.52,2.93,5.17,4.51l-10,.1c-1.66-1.6-3.4-3.11-5.2-4.55s-3.68-2.78-5.62-4-4-2.46-6-3.56-4.23-2.13-6.45-3.08" transform="translate(-172.8 -146.5)"/><path class="cls-31" d="M613.53,552.21l10-.1c.82.79,1.63,1.59,2.41,2.42s1.56,1.67,2.31,2.54,1.49,1.75,2.21,2.65,1.42,1.84,2.11,2.78l-10,.18c-.68-.95-1.39-1.89-2.11-2.8s-1.47-1.81-2.22-2.68-1.54-1.72-2.33-2.56-1.6-1.64-2.43-2.43" transform="translate(-172.8 -146.5)"/></g></g></g><g class="cls-2"><g class="cls-36"><g class="cls-2"><path class="cls-33" d="M553.92,390.71l10.41,1.15c1.74.2,3.47.44,5.18.74s3.4.64,5.08,1,3.33.85,5,1.34,3.26,1,4.86,1.65l.54.2.53.21.54.21.52.21-10.26-1.11-.54-.21a4.87,4.87,0,0,0-.53-.21l-.54-.21-.54-.21q-2.42-.9-4.89-1.66t-5-1.35c-1.68-.4-3.38-.74-5.1-1s-3.46-.54-5.22-.74" transform="translate(-172.8 -146.5)"/><path class="cls-35" d="M576.29,396.34l10.26,1.11q3.48,1.41,6.75,3.06t6.33,3.58c2,1.27,4,2.64,5.91,4.08s3.72,3,5.48,4.61l.1.09.1.1.1.09.1.1-10.11-1-.1-.09-.1-.1-.11-.09-.1-.1q-2.64-2.44-5.51-4.64T589.44,403q-3.08-1.92-6.36-3.6t-6.79-3.08" transform="translate(-172.8 -146.5)"/><path class="cls-31" d="M601.31,412.16l10.11,1q2.76,2.58,5.24,5.39c1.65,1.88,3.2,3.82,4.66,5.85s2.83,4.12,4.09,6.29,2.44,4.42,3.52,6.74a73.68,73.68,0,0,1,2.88,7.24A71.27,71.27,0,0,1,635.09,460a76.44,76.44,0,0,1,.41,8.06,97,97,0,0,1-.66,11.52,76.68,76.68,0,0,1-2,10.55,64.75,64.75,0,0,1-3.32,9.58,58.19,58.19,0,0,1-4.64,8.6,83.39,83.39,0,0,1-5.63,7.62,72,72,0,0,1-6.27,6.64,67.34,67.34,0,0,1-6.9,5.66,68.41,68.41,0,0,1-7.52,4.68l-10.2-.06a67.65,67.65,0,0,0,14.52-10.42,71.65,71.65,0,0,0,6.3-6.69,82.82,82.82,0,0,0,5.67-7.68,59.1,59.1,0,0,0,4.67-8.67,65.28,65.28,0,0,0,3.34-9.65,76.5,76.5,0,0,0,2-10.64,96.15,96.15,0,0,0,.67-11.6,80.46,80.46,0,0,0-.41-8.13,75.23,75.23,0,0,0-1.24-7.86,72.3,72.3,0,0,0-2.07-7.57,69.11,69.11,0,0,0-2.9-7.29q-1.62-3.51-3.53-6.8t-4.12-6.34q-2.21-3.06-4.69-5.89t-5.27-5.44" transform="translate(-172.8 -146.5)"/></g></g></g><path class="cls-37" d="M622.62,562.68a63.25,63.25,0,0,1,5.71,9.58,69,69,0,0,1,4.08,10.68,80,80,0,0,1,2.46,11.76,98.28,98.28,0,0,1,.82,12.84q0,4.88-.46,9.51a85.62,85.62,0,0,1-1.35,9,76.39,76.39,0,0,1-2.25,8.48,72.67,72.67,0,0,1-3.16,8q-1.82,3.84-3.94,7.4a77.82,77.82,0,0,1-9.82,13.06,76.76,76.76,0,0,1-5.88,5.66A82.62,82.62,0,0,1,595.44,678c-2.39,1.36-4.87,2.6-7.43,3.74s-5.19,2.16-7.91,3.08-5.5,1.72-8.32,2.39-5.68,1.22-8.59,1.64-5.87.71-8.88.89-6.06.22-9.16.14l-108.24-2.58V392.68l104.44-2.49q4.36-.1,8.59.17c2.83.19,5.6.5,8.34.94s5.42,1,8.06,1.72,5.25,1.53,7.8,2.48,5,2,7.43,3.18,4.7,2.41,6.93,3.76,4.38,2.82,6.45,4.37,4,3.22,5.95,5,3.7,3.6,5.4,5.51a76.7,76.7,0,0,1,4.81,6q2.25,3.11,4.21,6.44t3.6,6.92a69.11,69.11,0,0,1,2.9,7.29,72.3,72.3,0,0,1,2.07,7.57,75.23,75.23,0,0,1,1.24,7.86,80.46,80.46,0,0,1,.41,8.13,96.15,96.15,0,0,1-.67,11.6,76.5,76.5,0,0,1-2,10.64,65.28,65.28,0,0,1-3.34,9.65,59.1,59.1,0,0,1-4.67,8.67,82.82,82.82,0,0,1-5.67,7.68,71.65,71.65,0,0,1-6.3,6.69,67.65,67.65,0,0,1-14.52,10.42v3.38A82.17,82.17,0,0,1,598.45,541a78,78,0,0,1,9.08,6,75.11,75.11,0,0,1,15.09,15.65Zm-49.62,65a35.34,35.34,0,0,0,4.52-5.68,34.41,34.41,0,0,0,3.24-6.48,38.79,38.79,0,0,0,2-7.25,50.24,50.24,0,0,0,0-16.11,40.14,40.14,0,0,0-2-7.37,37.92,37.92,0,0,0-3.29-6.67,38.87,38.87,0,0,0-4.61-6,32,32,0,0,0-5.9-4.91,35.17,35.17,0,0,0-7.15-3.5,44.87,44.87,0,0,0-8.4-2.12,63.43,63.43,0,0,0-9.63-.73l-54.9-.18v76.33l56.42.88a59.11,59.11,0,0,0,9.12-.52,43.06,43.06,0,0,0,8-1.89,33.37,33.37,0,0,0,6.87-3.24,30.86,30.86,0,0,0,5.75-4.61m-86.17-186v70.94l50.73-.22a51,51,0,0,0,8.41-.71,38.45,38.45,0,0,0,7.4-2,31.94,31.94,0,0,0,6.4-3.37,30.46,30.46,0,0,0,5.38-4.72,38.76,38.76,0,0,0,4.26-5.63,35.78,35.78,0,0,0,3.06-6.13,36.91,36.91,0,0,0,1.83-6.63,40.31,40.31,0,0,0,.61-7.12,40.86,40.86,0,0,0-.6-7.09,36.35,36.35,0,0,0-1.79-6.55,35.06,35.06,0,0,0-3-6,37.06,37.06,0,0,0-4.19-5.46,29.94,29.94,0,0,0-11.35-7.7,35.17,35.17,0,0,0-7-1.86,46.65,46.65,0,0,0-7.9-.53l-52.25.83" transform="translate(-172.8 -146.5)"/><g class="cls-2"><g class="cls-38"><g class="cls-2"><path class="cls-31" d="M622.62,562.68l10-.18a64,64,0,0,1,5.67,9.51,67.81,67.81,0,0,1,4.05,10.59,77.51,77.51,0,0,1,2.44,11.67,96.85,96.85,0,0,1,.82,12.74q0,4.85-.45,9.44a84.29,84.29,0,0,1-1.35,8.92,75.73,75.73,0,0,1-2.24,8.41,69.68,69.68,0,0,1-3.14,7.89A81.37,81.37,0,0,1,634.5,649a77,77,0,0,1-4.56,6.77,75,75,0,0,1-5.2,6.19,77.56,77.56,0,0,1-5.84,5.62q-3.07,2.65-6.41,5a78.67,78.67,0,0,1-6.9,4.35c-2.38,1.35-4.84,2.58-7.38,3.71s-5.16,2.15-7.87,3.06c-1.6.54-3.23,1-4.87,1.5s-3.29.86-5,1.23-3.36.69-5.07,1-3.42.52-5.16.72l-10.37,1.15c1.75-.2,3.48-.44,5.2-.72s3.41-.61,5.1-1,3.35-.78,5-1.24,3.28-1,4.9-1.51q4.08-1.38,7.91-3.08c2.56-1.14,5-2.38,7.43-3.74a82.62,82.62,0,0,0,13.39-9.43,76.76,76.76,0,0,0,5.88-5.66,77.82,77.82,0,0,0,9.82-13.06q2.13-3.55,3.94-7.4a72.67,72.67,0,0,0,3.16-8,76.39,76.39,0,0,0,2.25-8.48,85.62,85.62,0,0,0,1.35-9q.46-4.63.46-9.51a98.28,98.28,0,0,0-.82-12.84,80,80,0,0,0-2.46-11.76,69,69,0,0,0-4.08-10.68,63.25,63.25,0,0,0-5.71-9.58" transform="translate(-172.8 -146.5)"/></g></g></g></g></svg>